<svg xmlns="http://www.w3.org/2000/svg" width="700" height="430" viewBox="0 0 700 430">
  <g>
    <!-- VAN HUY original paths -->
    <path d="M59 0 5 760H105L124 197L135 25H127L138 197L159 760H255L201 0Z" fill="var(--text-color)" stroke-width="0" transform="translate(5.00,300.46) scale(0.3927,-0.3927)"/>
    <path d="M66 133V223H201V133ZM59 760H201L255 0H155L136 563L125 735H133L122 563L101 0H5Z" fill="var(--text-color)" stroke-width="0" transform="translate(107.11,300.46) scale(0.3927,-0.3927)"/>
    <path d="M161 760 201 238 215 66V238L205 760H296V0H157L117 522L103 694V522L113 0H22V760Z" fill="var(--text-color)" stroke-width="0" transform="translate(209.21,300.46) scale(0.3927,-0.3927)"/>
    <path d="M166 0V350H122V0H22V760H122V445H166V760H266V0Z" fill="var(--text-color)" stroke-width="0" transform="translate(374.94,300.46) scale(0.3927,-0.3927)"/>
    <path d="M18 260V760H117V310Q117 234 118.5 188.0Q120 142 122.5 118.0Q125 94 129.0 85.5Q133 77 139 77Q145 77 149.0 85.5Q153 94 155.5 118.0Q158 142 159.5 188.0Q161 234 161 310V760H260V260Q260 154 247.5 96.5Q235 39 208.5 17.0Q182 -5 139 -5Q96 -5 69.5 17.0Q43 39 30.5 96.5Q18 154 18 260Z" fill="var(--text-color)" stroke-width="0" transform="translate(488.04,300.46) scale(0.3927,-0.3927)"/>
    <path d="M174 306 246 760H153L133 505L121 393H133L121 505L101 760H3L75 306V0H174Z" fill="var(--text-color)" stroke-width="0" transform="translate(597.21,300.46) scale(0.3927,-0.3927)"/>
  </g>
  <!-- Custom dynamically rendered text with xml:space="preserve" to support exact multiple spaces around ampersand -->
  <text x="350" y="366" xml:space="preserve" font-family="'NewTitle-Variable', 'Avenir Next Condensed', 'Arial Narrow', 'Impact', sans-serif" font-size="62" font-weight="550" fill="var(--text-color)" text-anchor="middle" textLength="690" lengthAdjust="spacingAndGlyphs">STARTUP BUILDER  &amp;  DIGITAL MARKETING</text>
</svg>
